<svg width="24" height="25" viewBox="0 0 24 25" fill="none" xmlns="http://www.w3.org/2000/svg">
<g clip-path="url(#clip0_322_71)">
<path d="M17.9763 4.52698L17.5244 4.7203C16.8312 5.01596 16.4212 5.40118 16.0683 5.79066C16.3919 5.94418 16.7029 6.14034 16.9986 6.37488C17.6583 6.92214 18.1032 7.51347 18.4519 8.29812L18.9763 9.47083L17.7211 9.31305C16.8215 9.20217 16.219 9.40686 15.6346 9.60445C15.3961 9.68689 15.152 9.76934 14.8968 9.8262C14.9135 9.93423 14.9261 10.0437 14.9344 10.1517C14.9902 10.7999 14.9052 11.458 14.6848 12.1076C14.3905 12.9221 13.9888 13.5419 13.3738 14.1332L12.9596 14.5298L12.4895 14.2057C11.7908 13.721 11.2957 13.1737 10.8842 12.4303C10.6095 11.9072 10.4324 11.3727 10.357 10.8241C10.0697 10.8752 9.78522 10.8852 9.50628 10.8966C8.89261 10.9207 8.25662 10.9449 7.45467 11.3742L6.33473 11.9754L6.41702 10.689C6.47141 9.83046 6.68201 9.11831 7.10321 8.37915C7.35844 7.94986 7.6583 7.57744 8.00418 7.26472C7.92469 7.19364 7.84658 7.11973 7.76987 7.04723C7.31799 6.62222 6.85077 6.18156 5.98466 5.90722L4.77545 5.52342L5.51604 4.8596C1.33473 6.14318 0 9.89158 0 14.0991C0 19.9925 5.37239 24.77 12 24.77C18.6262 24.77 24 19.9925 24 14.0991C24 9.75512 22.4616 5.62861 17.9763 4.52698Z" fill="#D02E3B"/>
<path d="M7.71406 8.72311C8.01671 8.21281 8.39328 7.80627 8.83261 7.49497C8.96511 7.40115 9.10458 7.31871 9.24684 7.24053C8.30541 6.84252 7.90095 5.73946 6.19244 5.19788C6.8368 4.62219 7.42396 4.36917 7.9944 4.21423C8.56204 4.07208 9.11155 4.05645 9.63735 4.15311C10.1659 4.24692 10.675 4.45303 11.1618 4.78424C11.198 4.80982 11.2343 4.83967 11.2678 4.87094C10.629 2.7487 9.85632 1.03441 9.84098 0.998875L10.3249 0.77002C10.3919 0.91643 11.1311 2.56249 11.7573 4.62503C11.9205 4.43456 12.0892 4.26114 12.2636 4.11046C12.7182 3.73377 13.2064 3.47933 13.7224 3.33434C14.2385 3.18509 14.7838 3.14813 15.364 3.23484C15.9456 3.3315 16.5551 3.52766 17.251 4.03797C15.841 4.63782 15.4198 5.55751 14.7643 6.11757C14.8745 6.13463 14.9804 6.15453 15.0878 6.18296C15.6081 6.31515 16.1004 6.55822 16.5606 6.92638C17.0181 7.30591 17.4519 7.78353 17.8061 8.57812C15.9149 8.34074 15.1171 9.30591 13.9944 9.14102C14.1185 9.48644 14.198 9.83612 14.2273 10.1901C14.2761 10.7345 14.2078 11.2874 14.0153 11.8503C13.8103 12.4161 13.509 12.9889 12.887 13.5874C12.1771 13.097 11.7908 12.581 11.5007 12.0564C11.2231 11.5305 11.0697 10.9946 11.0321 10.4502C11.0125 10.2242 11.0181 9.99959 11.0404 9.77215C10.0042 10.4971 8.89816 9.76505 7.12271 10.716C7.1771 9.84607 7.41699 9.24337 7.71406 8.72311Z" fill="#069D24"/>
</g>
<defs>
<clipPath id="clip0_322_71">
<rect width="24" height="24" fill="white" transform="translate(0 0.77002)"/>
</clipPath>
</defs>
</svg>
